<svg xmlns="http://www.w3.org/2000/svg" viewBox="0 0 24 24"><path fill="#303C42" d="M12 0C5.383 0 0 5.383 0 12s5.383 12 12 12 12-5.383 12-12S18.617 0 12 0z"/><path fill="#1E88E5" d="M12 23C5.935 23 1 18.065 1 12S5.935 1 12 1s11 4.935 11 11-4.935 11-11 11z"/><linearGradient id="a" x1="8.958" x2="19.795" y1="8.917" y2="19.754" gradientUnits="userSpaceOnUse"><stop offset="0" stop-opacity=".1"/><stop offset="1" stop-opacity="0"/></linearGradient><path fill="url(#a)" d="M14.385 5.978c.063.025.126.05.188.077l.72-.433-1.36-1.36a.49.49 0 0 1 .052.117l.4 1.599zM12 15c1.654 0 3-1.346 3-3s-1.346-3-3-3-3 1.346-3 3 1.346 3 3 3zm-7.621-1.015a.494.494 0 0 1-.287-.202l-.009.009 1.526 1.525.446-.744a8.001 8.001 0 0 1-.077-.188l-1.6-.4zm18.608-2.248l-4.19-4.19-.013-.006c.077.15.099.323.008.474l-.847 1.412c.027.062.052.125.077.188l1.6.4A.5.5 0 0 1 20 10.5v3a.5.5 0 0 1-.379.485l-1.599.4a8 8 0 0 1-.077.188l.847 1.412a.5.5 0 0 1-.075.611l-2.12 2.121a.5.5 0 0 1-.612.075l-1.412-.847a8.001 8.001 0 0 1-.188.077l-.4 1.6A.5.5 0 0 1 13.5 20h-3a.5.5 0 0 1-.485-.379l-.4-1.599a8 8 0 0 1-.188-.077l-1.412.847c-.1.06-.215.08-.325.065l4.134 4.134c.06.001.117.009.176.009 6.065 0 11-4.935 11-11 0-.089-.011-.175-.013-.263z"/><path fill="#303C42" d="M19.621 10.015l-1.599-.4a8 8 0 0 0-.077-.188l.847-1.412a.5.5 0 0 0-.075-.611l-2.12-2.122a.5.5 0 0 0-.612-.075l-1.412.848a7.195 7.195 0 0 0-.188-.077l-.4-1.6A.5.5 0 0 0 13.5 4h-3a.5.5 0 0 0-.485.379l-.4 1.599c-.063.025-.126.05-.188.077l-1.412-.848a.5.5 0 0 0-.611.075L5.283 7.404a.5.5 0 0 0-.075.61l.847 1.413a8.001 8.001 0 0 0-.077.188l-1.6.4A.5.5 0 0 0 4 10.5v3a.5.5 0 0 0 .379.485l1.599.4a8 8 0 0 0 .077.188l-.847 1.412a.5.5 0 0 0 .075.611l2.12 2.121a.501.501 0 0 0 .612.075l1.412-.847c.062.027.125.052.188.077l.4 1.6A.5.5 0 0 0 10.5 20h3a.5.5 0 0 0 .485-.379l.4-1.599a8 8 0 0 0 .188-.077l1.412.847a.5.5 0 0 0 .611-.075l2.121-2.12a.5.5 0 0 0 .075-.612l-.847-1.412c.027-.062.052-.125.077-.188l1.6-.4A.5.5 0 0 0 20 13.5v-3a.5.5 0 0 0-.379-.485zM12 15c-1.654 0-3-1.346-3-3s1.346-3 3-3 3 1.346 3 3-1.346 3-3 3z"/><path fill="#E6E6E6" d="M17.171 13.8a.498.498 0 0 1 .351-.321l1.478-.37v-2.218l-1.478-.37a.498.498 0 0 1-.35-.32 5.477 5.477 0 0 0-.24-.588.5.5 0 0 1 .021-.476l.781-1.302-1.569-1.57-1.302.782a.501.501 0 0 1-.476.02 5.477 5.477 0 0 0-.587-.238.498.498 0 0 1-.321-.351L13.109 5h-2.218l-.37 1.478a.498.498 0 0 1-.32.35c-.203.07-.398.148-.588.24a.501.501 0 0 1-.476-.021l-1.302-.782-1.57 1.57.782 1.302a.5.5 0 0 1 .02.476c-.09.19-.168.385-.238.587a.498.498 0 0 1-.351.321L5 10.891v2.218l1.478.37c.164.04.295.162.35.32.07.203.148.398.24.588a.5.5 0 0 1-.021.476l-.781 1.302 1.569 1.57 1.302-.782a.502.502 0 0 1 .475-.021c.19.092.386.17.588.24.16.055.28.186.321.35l.37 1.478h2.218l.37-1.478a.498.498 0 0 1 .32-.35c.203-.07.399-.148.59-.24a.502.502 0 0 1 .474.021l1.302.781 1.57-1.569-.782-1.302a.5.5 0 0 1-.02-.476c.09-.19.168-.385.238-.587zM12 16c-2.206 0-4-1.794-4-4s1.794-4 4-4 4 1.794 4 4-1.794 4-4 4z"/><path d="M17.171 10.2a5.477 5.477 0 0 0-.239-.587.5.5 0 0 1 .021-.476l.781-1.302-1.569-1.57-1.302.782a.501.501 0 0 1-.476.02 5.477 5.477 0 0 0-.587-.238.498.498 0 0 1-.321-.351L13.109 5H12v3c2.206 0 4 1.794 4 4s-1.794 4-4 4v3h1.11l.369-1.478a.498.498 0 0 1 .32-.35c.203-.07.399-.148.59-.24a.502.502 0 0 1 .474.021l1.302.781 1.57-1.569-.782-1.302a.5.5 0 0 1-.02-.476c.09-.19.168-.385.238-.587a.498.498 0 0 1 .351-.321l1.478-.37v-2.218l-1.478-.37a.498.498 0 0 1-.35-.32z" opacity=".1"/><linearGradient id="b" x1="1.125" x2="22.875" y1="6.929" y2="17.071" gradientUnits="userSpaceOnUse"><stop offset="0" stop-color="#FFF" stop-opacity=".2"/><stop offset="1" stop-color="#FFF" stop-opacity="0"/></linearGradient><path fill="url(#b)" d="M12 0C5.383 0 0 5.383 0 12s5.383 12 12 12 12-5.383 12-12S18.617 0 12 0z"/></svg>